<?xml version="1.0" encoding="UTF-8" standalone="no"?>
<!-- Created with Inkscape (http://www.inkscape.org/) -->

<svg
   xmlns:dc="http://purl.org/dc/elements/1.1/"
   xmlns:cc="http://creativecommons.org/ns#"
   xmlns:rdf="http://www.w3.org/1999/02/22-rdf-syntax-ns#"
   xmlns:svg="http://www.w3.org/2000/svg"
   xmlns="http://www.w3.org/2000/svg"
   xmlns:sodipodi="http://sodipodi.sourceforge.net/DTD/sodipodi-0.dtd"
   xmlns:inkscape="http://www.inkscape.org/namespaces/inkscape"
   width="328.96661mm"
   height="65.009872mm"
   viewBox="0 0 131.58665 26.003951"
   version="1.1"
   id="svg8"
   inkscape:version="0.92.3 (2405546, 2018-03-11)"
   sodipodi:docname="logo.svg"
   inkscape:export-filename="/home/vinicius/Área de Trabalho/EMPREENDEDORISMO/logo2.png"
   inkscape:export-xdpi="94.972252"
   inkscape:export-ydpi="94.972252">
  <defs
     id="defs2" />
  <sodipodi:namedview
     id="base"
     pagecolor="#ffffff"
     bordercolor="#666666"
     borderopacity="1.0"
     inkscape:pageopacity="0"
     inkscape:pageshadow="2"
     inkscape:zoom="0.175"
     inkscape:cx="774.87305"
     inkscape:cy="520.8104"
     inkscape:document-units="mm"
     inkscape:current-layer="layer1"
     showgrid="false"
     scale-x="0.4"
     fit-margin-top="10"
     fit-margin-left="10"
     fit-margin-right="10"
     fit-margin-bottom="10"
     inkscape:window-width="1024"
     inkscape:window-height="670"
     inkscape:window-x="0"
     inkscape:window-y="27"
     inkscape:window-maximized="1" />
  <metadata
     id="metadata5">
    <rdf:RDF>
      <cc:Work
         rdf:about="">
        <dc:format>image/svg+xml</dc:format>
        <dc:type
           rdf:resource="http://purl.org/dc/dcmitype/StillImage" />
        <dc:title />
      </cc:Work>
    </rdf:RDF>
  </metadata>
  <g
     inkscape:label="Camada 1"
     inkscape:groupmode="layer"
     id="layer1"
     transform="translate(-16.555225,-80.180714)">
    <g
       aria-label="Agrofácil"
       style="font-style:normal;font-weight:normal;font-size:22.22559738px;line-height:1.25;font-family:sans-serif;text-align:center;letter-spacing:0px;word-spacing:0px;text-anchor:middle;fill:#ffffff;fill-opacity:0.99373043;stroke:none;stroke-width:0.55563992"
       id="text817-8"
       inkscape:export-xdpi="94"
       inkscape:export-ydpi="94">
      <path
         d="m 50.765628,83.603451 h 4.000607 l 4.978534,14.89115 1.222408,0.222256 v 1.466893 h -7.001063 v -1.466893 l 1.578017,-0.222256 -0.75567,-2.667072 h -5.311918 l -0.75567,2.689298 1.733596,0.20003 v 1.466893 H 44.54246 l -0.02222,-1.466893 1.289084,-0.244482 z m 1.644694,3.867254 -0.333384,-1.555792 -0.35561,1.578017 -1.800273,6.623228 h 4.400668 z"
         style="font-style:normal;font-variant:normal;font-weight:normal;font-stretch:normal;font-family:'Merriweather Black';-inkscape-font-specification:'Merriweather Black, ';fill:#ffffff;fill-opacity:0.99373043;stroke-width:0.55563992"
         id="path905" />
      <path
         d="m 67.07991,106.18466 q -3.067132,0 -4.445119,-0.9557 -1.355762,-0.9557 -1.355762,-2.55595 0,-0.88902 0.600091,-1.68914 0.600092,-0.80012 1.511341,-1.200184 -1.044603,-0.600092 -1.044603,-1.911402 0,-0.711219 0.488963,-1.377987 0.488963,-0.688993 1.31131,-1.044603 -2.467041,-0.911249 -2.467041,-3.778351 0,-1.26686 0.75567,-2.200335 0.755671,-0.9557 2.044755,-1.444663 1.289085,-0.511189 2.844877,-0.511189 2.778199,0 4.067284,1.022377 0.311158,-0.377835 0.977926,-0.711219 0.666768,-0.355609 1.377987,-0.355609 h 0.800122 v 2.711523 h -2.200334 q 0.222256,0.622316 0.222256,1.266859 0,2.044755 -1.444664,3.244937 -1.444664,1.200182 -4.111736,1.200182 -1.089054,0 -1.800273,-0.155579 -0.133354,0.266707 -0.222256,0.55564 -0.06668,0.288933 -0.06668,0.466737 0,0.688994 0.511189,0.955701 0.511189,0.244482 1.86695,0.244482 h 2.289237 q 4.689601,0 4.689601,3.356063 0,1.46689 -1.022378,2.57817 -1.022377,1.11128 -2.689297,1.68915 -1.644694,0.60009 -3.489419,0.60009 z m 0.155579,-11.801795 q 0.933475,0 1.333536,-0.688993 0.422287,-0.711219 0.422287,-2.022529 0,-1.422439 -0.422287,-2.066981 -0.422286,-0.644542 -1.355761,-0.644542 -1.889176,0 -1.889176,2.62262 0,2.800425 1.911401,2.800425 z m 0.266708,10.134875 q 1.222407,0 2.089206,-0.64454 0.866798,-0.64455 0.866798,-1.8225 0,-0.93348 -0.466738,-1.33354 -0.466737,-0.37783 -1.644694,-0.37783 h -2.267011 q -0.355609,0 -0.800121,-0.0445 -0.422287,0.689 -0.422287,1.71138 0,2.51149 2.644847,2.51149 z"
         style="font-style:normal;font-variant:normal;font-weight:normal;font-stretch:normal;font-family:'Merriweather Black';-inkscape-font-specification:'Merriweather Black, ';fill:#ffffff;fill-opacity:0.99373043;stroke-width:0.55563992"
         id="path907" />
      <path
         d="m 75.63364,98.716857 1.355762,-0.20003 v -8.356825 l -1.311311,-0.400061 v -1.733596 l 3.689449,-0.488964 h 0.06668 l 0.622317,0.466738 v 0.533414 l -0.06668,1.844725 h 0.06668 q 0.155579,-0.511189 0.711219,-1.177957 0.55564,-0.688993 1.400213,-1.177956 0.866798,-0.511189 1.86695,-0.511189 0.577865,0 0.889024,0.155579 v 3.867254 q -0.35561,-0.266707 -0.777896,-0.422286 -0.400061,-0.15558 -1.044603,-0.15558 -0.800122,0 -1.444664,0.222256 -0.644542,0.200031 -1.022377,0.466738 v 6.86771 l 2.444815,0.222256 v 1.444667 H 75.63364 Z"
         style="font-style:normal;font-variant:normal;font-weight:normal;font-stretch:normal;font-family:'Merriweather Black';-inkscape-font-specification:'Merriweather Black, ';fill:#ffffff;fill-opacity:0.99373043;stroke-width:0.55563992"
         id="path909" />
      <path
         d="m 86.356797,94.071707 q 0,-2.133657 0.844572,-3.600547 0.844573,-1.489115 2.267011,-2.222559 1.444664,-0.733445 3.156035,-0.733445 2.800425,0 4.378443,1.689145 1.600243,1.66692 1.600243,4.667376 0,2.200334 -0.844573,3.667223 -0.844573,1.46689 -2.267011,2.178109 -1.422438,0.711221 -3.17826,0.711221 -2.7782,0 -4.378443,-1.666922 -1.578017,-1.689145 -1.578017,-4.689601 z m 6.178716,4.800729 q 1.066828,0 1.578017,-1.133505 0.533414,-1.155731 0.533414,-3.600547 0,-2.600395 -0.511188,-3.822803 -0.488964,-1.244633 -1.66692,-1.244633 -2.178109,0 -2.178109,4.734052 0,2.578169 0.533415,3.822803 0.533414,1.244633 1.711371,1.244633 z"
         style="font-style:normal;font-variant:normal;font-weight:normal;font-stretch:normal;font-family:'Merriweather Black';-inkscape-font-specification:'Merriweather Black, ';fill:#ffffff;fill-opacity:0.99373043;stroke-width:0.55563992"
         id="path911" />
      <path
         d="m 102.03869,89.693264 h -1.73359 v -1.377987 l 1.73359,-0.444512 V 86.93729 q 0,-1.489115 0.80013,-2.711523 0.80012,-1.222407 2.13365,-1.933627 1.35576,-0.711219 2.91156,-0.711219 0.82234,0 1.48911,0.222256 v 3.222712 q -0.24448,-0.266707 -0.9557,-0.511189 -0.71122,-0.266707 -1.40021,-0.266707 -0.73345,0 -1.04461,0.377835 -0.31115,0.377835 -0.31115,1.244634 v 1.978078 h 2.66707 v 1.844724 h -2.66707 v 8.823563 l 2.24478,0.20003 v 1.466893 h -7.57893 v -1.466893 l 1.71137,-0.20003 z"
         style="font-style:normal;font-variant:normal;font-weight:normal;font-stretch:normal;font-family:'Merriweather Black';-inkscape-font-specification:'Merriweather Black, ';fill:#ffffff;fill-opacity:0.99373043;stroke-width:0.55563992"
         id="path913" />
      <path
         d="m 109.42002,96.627651 q 0,-1.955853 1.97808,-3.000456 2.0003,-1.044603 5.24524,-1.066829 v -0.444512 q 0,-0.800121 -0.17781,-1.266859 -0.1778,-0.466737 -0.64454,-0.688993 -0.46674,-0.244482 -1.37798,-0.244482 -1.08906,0 -1.95586,0.266708 -0.84457,0.244481 -1.77804,0.666767 l -0.75568,-1.600243 q 0.35561,-0.288932 1.15574,-0.688993 0.80012,-0.422286 1.9114,-0.711219 1.1335,-0.311159 2.35591,-0.311159 1.77805,0 2.7782,0.466738 1.02238,0.466738 1.44466,1.444664 0.44452,0.977926 0.44452,2.667071 v 6.601003 h 1.15573 v 1.400213 q -0.51119,0.11113 -1.42244,0.22226 -0.91125,0.11112 -1.55579,0.11112 -0.84458,0 -1.13351,-0.24448 -0.26671,-0.24448 -0.26671,-0.977924 v -0.511189 q -0.55564,0.666768 -1.48911,1.200182 -0.93348,0.511191 -2.15588,0.511191 -1.04461,0 -1.9114,-0.444514 -0.84458,-0.466738 -1.35577,-1.31131 -0.48896,-0.866799 -0.48896,-2.044755 z m 5.48972,1.755822 q 0.40006,0 0.88903,-0.222256 0.48896,-0.244482 0.84457,-0.577866 v -3.53387 q -1.7336,0 -2.57817,0.622317 -0.82235,0.622317 -0.82235,1.600243 0,1.000152 0.44452,1.555792 0.44451,0.55564 1.2224,0.55564 z m -2.17811,-13.446486 3.86726,-4.756278 2.13366,1.911401 q -0.57787,0.977926 -2.13366,2.267011 -1.55579,1.266859 -2.57817,1.66692 z"
         style="font-style:normal;font-variant:normal;font-weight:normal;font-stretch:normal;font-family:'Merriweather Black';-inkscape-font-specification:'Merriweather Black, ';fill:#ffffff;fill-opacity:0.99373043;stroke-width:0.55563992"
         id="path915" />
      <path
         d="m 122.16223,94.093933 q 0,-1.978079 0.80012,-3.467194 0.80012,-1.489115 2.24479,-2.289236 1.44466,-0.822347 3.33384,-0.822347 0.93347,0 1.60024,0.133353 0.68899,0.111128 1.40021,0.333384 0.64454,0.177805 0.80012,0.200031 l -0.15558,4.022833 h -2.24478 l -0.57787,-2.555944 q -0.0667,-0.288933 -0.37783,-0.400061 -0.28893,-0.133353 -0.71122,-0.133353 -1.0446,0 -1.64469,1.022377 -0.57787,1.022378 -0.57787,3.400517 0,2.267011 0.73344,3.489419 0.75568,1.200182 2.02253,1.200182 1.6447,0 3.02269,-0.844573 l 0.60009,1.31131 q -0.53342,0.600091 -1.75583,1.177957 -1.2224,0.555642 -2.71152,0.555642 -2.91155,0 -4.35622,-1.711373 -1.44466,-1.733597 -1.44466,-4.622924 z"
         style="font-style:normal;font-variant:normal;font-weight:normal;font-stretch:normal;font-family:'Merriweather Black';-inkscape-font-specification:'Merriweather Black, ';fill:#ffffff;fill-opacity:0.99373043;stroke-width:0.55563992"
         id="path917" />
      <path
         d="m 136.75195,85.914913 q -0.8668,0 -1.40021,-0.511189 -0.53342,-0.511189 -0.53342,-1.31131 0,-0.933475 0.57787,-1.533566 0.60009,-0.600092 1.60024,-0.600092 1.00015,0 1.53357,0.511189 0.53341,0.511189 0.53341,1.31131 0,0.955701 -0.60009,1.555792 -0.60009,0.577866 -1.68915,0.577866 z m -1.35576,4.245089 -1.48912,-0.422286 v -1.66692 l 4.44512,-0.533415 h 0.0444 l 0.689,0.466738 v 10.512708 l 1.33353,0.20003 v 1.466893 h -6.40097 v -1.466893 l 1.37799,-0.20003 z"
         style="font-style:normal;font-variant:normal;font-weight:normal;font-stretch:normal;font-family:'Merriweather Black';-inkscape-font-specification:'Merriweather Black, ';fill:#ffffff;fill-opacity:0.99373043;stroke-width:0.55563992"
         id="path919" />
      <path
         d="m 143.09666,84.136865 -1.55579,-0.288933 v -1.355761 l 4.44512,-0.533415 h 0.0667 l 0.64454,0.466738 v 16.091333 l 1.44466,0.20003 v 1.466893 h -6.46765 v -1.466893 l 1.42244,-0.20003 z"
         style="font-style:normal;font-variant:normal;font-weight:normal;font-stretch:normal;font-family:'Merriweather Black';-inkscape-font-specification:'Merriweather Black, ';fill:#ffffff;fill-opacity:0.99373043;stroke-width:0.55563992"
         id="path921" />
    </g>
    <g
       id="g1164"
       transform="matrix(0.26458333,0,0,0.26458333,16.555225,81.011728)"
       style="fill:#ffffff;fill-opacity:0.99373043"
       inkscape:export-xdpi="94"
       inkscape:export-ydpi="94">
      <g
         id="g1108"
         style="fill:#ffffff;fill-opacity:0.99373043">
        <path
           id="path1106"
           d="m 22.366,30.569 c 1.004,0 1.974,0.152 2.887,0.434 3.448,-3.864 7.271,-7.379 11.411,-10.5 -0.173,-0.731 -0.275,-1.489 -0.275,-2.274 0,-1.084 0.184,-2.125 0.51,-3.1 -4.637,-3.328 -9.682,-6.12 -15.047,-8.279 -5.031,3.109 -9.418,7.162 -12.914,11.912 2.596,4.596 5.682,8.883 9.189,12.784 1.284,-0.62 2.72,-0.977 4.239,-0.977 z m -9.786,9.786 c 0,-1.374 0.287,-2.682 0.798,-3.868 C 10.236,33.039 7.392,29.317 4.899,25.352 1.771,31.562 0,38.572 0,45.999 0,54.601 2.366,62.646 6.476,69.532 7.944,61.255 10.73,53.436 14.579,46.264 13.328,44.622 12.58,42.579 12.58,40.355 Z M 46.176,8.441 c 2.585,0 4.929,1.009 6.678,2.646 C 57.96,8.89 63.339,7.206 68.932,6.129 62.18,2.238 54.354,0 46,0 40.306,0 34.854,1.043 29.82,2.936 33.816,4.908 37.623,7.212 41.205,9.809 42.663,8.945 44.36,8.441 46.176,8.441 Z m 14.636,46.097 c 0.609,-1.268 1.474,-2.389 2.543,-3.281 -2.888,-8.891 -7.465,-17.021 -13.359,-24.016 -1.173,0.498 -2.464,0.774 -3.82,0.774 -2.123,0 -4.082,-0.684 -5.686,-1.832 -3.547,2.696 -6.83,5.719 -9.815,9.018 0.932,1.497 1.479,3.261 1.479,5.154 0,1.023 -0.158,2.007 -0.448,2.933 8.585,5.736 18.463,9.668 29.106,11.25 z m 12.695,13.211 c 0.135,1.853 0.206,3.723 0.206,5.609 0,3.321 -0.212,6.592 -0.612,9.805 C 80.9,77.465 86.84,69.376 89.835,59.97 c -3.547,0.858 -7.188,1.471 -10.902,1.828 -0.874,2.678 -2.867,4.845 -5.426,5.951 z M 58.519,61.116 C 47.165,59.235 36.636,54.903 27.473,48.695 c -1.487,0.912 -3.232,1.449 -5.105,1.449 -0.688,0 -1.358,-0.073 -2.007,-0.208 -4.387,8.317 -7.19,17.593 -7.996,27.428 4.38,4.696 9.724,8.479 15.727,11.019 C 35.543,76.921 45.964,67.44 58.519,61.116 Z M 76.88,11.906 c -7.371,0.711 -14.412,2.561 -20.967,5.342 0.035,0.323 0.051,0.649 0.051,0.98 0,1.545 -0.368,3.001 -1.005,4.301 6.548,7.688 11.635,16.648 14.846,26.456 3.979,0.071 7.382,2.509 8.845,5.971 4.428,-0.449 8.74,-1.296 12.894,-2.518 0.294,-2.104 0.457,-4.251 0.457,-6.439 0,-13.52 -5.834,-25.677 -15.121,-34.093 z M 63.443,66.345 c -11.72,5.49 -21.519,13.945 -28.616,24.282 3.577,0.893 7.318,1.374 11.173,1.374 6.939,0 13.514,-1.546 19.413,-4.297 0.948,-4.637 1.45,-9.433 1.45,-14.346 0,-1.775 -0.08,-3.532 -0.213,-5.273 -1.183,-0.379 -2.267,-0.973 -3.207,-1.74 z"
           style="fill:#ffffff;fill-opacity:0.99373043"
           inkscape:connector-curvature="0" />
      </g>
      <g
         id="g1110"
         style="fill:#ffffff;fill-opacity:0.99373043" />
      <g
         id="g1112"
         style="fill:#ffffff;fill-opacity:0.99373043" />
      <g
         id="g1114"
         style="fill:#ffffff;fill-opacity:0.99373043" />
      <g
         id="g1116"
         style="fill:#ffffff;fill-opacity:0.99373043" />
      <g
         id="g1118"
         style="fill:#ffffff;fill-opacity:0.99373043" />
      <g
         id="g1120"
         style="fill:#ffffff;fill-opacity:0.99373043" />
      <g
         id="g1122"
         style="fill:#ffffff;fill-opacity:0.99373043" />
      <g
         id="g1124"
         style="fill:#ffffff;fill-opacity:0.99373043" />
      <g
         id="g1126"
         style="fill:#ffffff;fill-opacity:0.99373043" />
      <g
         id="g1128"
         style="fill:#ffffff;fill-opacity:0.99373043" />
      <g
         id="g1130"
         style="fill:#ffffff;fill-opacity:0.99373043" />
      <g
         id="g1132"
         style="fill:#ffffff;fill-opacity:0.99373043" />
      <g
         id="g1134"
         style="fill:#ffffff;fill-opacity:0.99373043" />
      <g
         id="g1136"
         style="fill:#ffffff;fill-opacity:0.99373043" />
      <g
         id="g1138"
         style="fill:#ffffff;fill-opacity:0.99373043" />
    </g>
  </g>
</svg>
